<?xml version="1.0" encoding="UTF-8" standalone="no"?>
<!DOCTYPE svg PUBLIC "-//W3C//DTD SVG 1.1//EN" "http://www.w3.org/Graphics/SVG/1.1/DTD/svg11.dtd">
<!-- Created with Vectornator (http://vectornator.io/) -->
<svg height="1024.0px" stroke-miterlimit="10" style="fill-rule:nonzero;clip-rule:evenodd;stroke-linecap:round;stroke-linejoin:round;" version="1.1" viewBox="0 0 1024 1024" width="1024.0px" xml:space="preserve" xmlns="http://www.w3.org/2000/svg" xmlns:xlink="http://www.w3.org/1999/xlink">
<defs/>
<g id="Layer-1">
<path d="M60 60C120 0 286 100 512 100C738 100 904 0 964 60C1024 120 924 286 924 512C924 738 1024 904 964 964C904 1024 738 924 512 924C286 924 120 1024 60 964C0 904 100 738 100 512C100 286 0 120 60 60Z" fill="#5e5e5e" fill-rule="nonzero" opacity="1" stroke="#adadad" stroke-linecap="butt" stroke-linejoin="round" stroke-width="30"/>
<path d="M114.688 70.875C96.2863 71.3063 86.8629 75.5746 81.2188 81.2188C74.7859 87.6516 70.0869 99.0622 70.9062 123.125C71.7059 146.608 78.0741 178.827 86.75 217.125C94.2827 250.376 103.351 288.424 111.281 330.156C183.362 340.943 265.82 350.687 352.75 356.281C346.467 268.306 336.336 183.99 325.438 110.375C285.557 102.659 249.125 93.9991 217.125 86.75C178.839 78.0769 146.609 71.7059 123.125 70.9062C120.115 70.8037 117.316 70.8134 114.688 70.875Z" fill="#ed6d48" fill-rule="nonzero" opacity="1" stroke="none"/>
<path d="M909.312 70.8438C906.685 70.7811 903.883 70.8038 900.875 70.9062C877.392 71.7059 845.173 78.0741 806.875 86.75C773.757 94.2523 735.876 103.248 694.344 111.156C683.555 184.137 673.551 267.605 667.281 354.688C755.385 348.344 839.696 338.149 913.281 327.219C921.08 286.639 929.894 249.597 937.25 217.125C945.923 178.839 952.294 146.609 953.094 123.125C953.914 99.0431 949.232 87.6691 942.781 81.2188C937.152 75.59 927.705 71.2822 909.312 70.8438Z" fill="#007aff" fill-rule="nonzero" opacity="1" stroke="none"/>
<path d="M665.688 669.188C671.325 756.795 681.146 839.897 692.031 912.375C734.488 920.385 773.142 929.608 806.875 937.25C845.161 945.923 877.39 952.294 900.875 953.094C924.957 953.914 936.331 949.232 942.781 942.781C949.214 936.348 953.913 924.938 953.094 900.875C952.294 877.392 945.926 845.173 937.25 806.875C929.894 774.402 921.08 737.356 913.281 696.781C839.254 685.785 754.364 675.521 665.688 669.188Z" fill="#11055c" fill-rule="nonzero" opacity="1" stroke="none"/>
<path d="M354.344 667.625C266.828 673.201 183.804 682.991 111.281 693.844C103.35 735.582 94.2828 773.623 86.75 806.875C78.0769 845.161 71.7059 877.39 70.9062 900.875C70.0862 924.957 74.7682 936.331 81.2188 942.781C87.6516 949.214 99.0622 953.913 123.125 953.094C146.608 952.294 178.827 945.926 217.125 937.25C249.746 929.86 286.987 921.012 327.781 913.188C338.778 840.091 348.704 756.128 354.344 667.625Z" fill="#467a12" fill-rule="nonzero" opacity="1" stroke="none"/>
<path d="M325.438 110.375C336.339 184.007 346.467 268.346 352.75 356.344C399.92 359.389 448.314 361.25 497.094 361.25C554.097 361.25 611.4 358.779 667.281 354.75C673.55 267.645 683.553 184.155 694.344 111.156C639.744 121.553 578.655 130 512 130C443.636 130 381.081 121.141 325.438 110.375Z" fill="#c2d047" fill-rule="nonzero" opacity="1" stroke="none"/>
<path d="M913.281 327.219C839.679 338.152 755.345 348.345 667.219 354.688C663.196 410.58 660.719 467.878 660.719 524.875C660.719 573.644 662.586 622.023 665.625 669.188C754.324 675.52 839.236 685.783 913.281 696.781C902.67 641.575 894 579.643 894 512C894 444.36 902.671 382.422 913.281 327.219Z" fill="#eb493a" fill-rule="nonzero" opacity="1" stroke="none"/>
<path d="M497.094 662.75C448.86 662.75 401.014 664.579 354.344 667.562C348.705 756.088 338.78 840.074 327.781 913.188C382.848 902.626 444.585 894 512 894C577.71 894 638.019 902.185 692.031 912.375C681.144 839.879 671.324 756.755 665.688 669.125C610.313 665.165 553.551 662.75 497.094 662.75Z" fill="#31096d" fill-rule="nonzero" opacity="1" stroke="none"/>
<path d="M111.281 330.156C121.633 384.629 130 445.55 130 512C130 578.446 121.632 639.374 111.281 693.844C183.813 682.99 266.847 673.17 354.375 667.594C357.353 620.93 359.219 573.094 359.219 524.875C359.219 468.429 356.804 411.658 352.844 356.281C265.88 350.688 183.388 340.947 111.281 330.156Z" fill="#5309cd" fill-rule="nonzero" opacity="1" stroke="none"/>
<path d="M667.281 354.688C611.373 358.713 554.079 361.25 497.094 361.25C448.31 361.25 399.972 359.32 352.75 356.281C356.707 411.688 359.219 468.429 359.219 524.875C359.219 573.112 357.321 620.904 354.344 667.625C401.062 664.648 448.86 662.75 497.094 662.75C553.539 662.75 610.281 665.23 665.688 669.188C662.649 621.971 660.719 573.652 660.719 524.875C660.719 467.89 663.256 410.596 667.281 354.688Z" fill="#ef9f46" fill-rule="nonzero" opacity="1" stroke="none"/>
<path d="M694.25 111.677C676.574 231.395 660.704 379.393 660.704 524.864C660.704 664.152 675.254 801.124 692.006 912.669" fill="none" opacity="1" stroke="#dddddd" stroke-dasharray="3.0,0.1,0.1,10.0" stroke-linecap="butt" stroke-linejoin="round" stroke-width="10"/>
<path d="M325.657 111.579C343.338 231.314 359.218 379.353 359.218 524.864C359.218 664.46 344.603 801.73 327.804 913.408" fill="none" opacity="1" stroke="#dddddd" stroke-dasharray="3.0,0.1,0.1,10.0" stroke-linecap="butt" stroke-linejoin="round" stroke-width="10"/>
<path d="M913.96 327.166C793.603 345.059 644.06 361.257 497.096 361.257C358.84 361.257 222.867 346.922 111.776 330.326" fill="none" opacity="1" stroke="#dddddd" stroke-dasharray="3.0,0.1,0.1,10.0" stroke-linecap="butt" stroke-linejoin="round" stroke-width="10"/>
<path d="M913.278 696.732C793.038 678.88 643.783 662.743 497.096 662.743C359.036 662.743 223.251 677.038 112.248 693.603" fill="none" opacity="1" stroke="#dddddd" stroke-dasharray="3.0,0.1,0.1,10.0" stroke-linecap="butt" stroke-linejoin="round" stroke-width="10"/>
<path d="M114.688 70.875C96.2863 71.3063 86.8629 75.5746 81.2188 81.2188C74.7859 87.6516 70.0869 99.0622 70.9062 123.125C71.7059 146.608 78.0741 178.827 86.75 217.125C104.115 293.78 130 394.642 130 512C130 629.361 104.113 730.228 86.75 806.875C78.0769 845.161 71.7059 877.39 70.9062 900.875C70.0862 924.957 74.7682 936.331 81.2188 942.781C87.6516 949.214 99.0622 953.913 123.125 953.094C146.608 952.294 178.827 945.926 217.125 937.25C293.78 919.885 394.642 894 512 894C629.361 894 730.228 919.886 806.875 937.25C845.161 945.923 877.39 952.294 900.875 953.094C924.957 953.914 936.331 949.232 942.781 942.781C949.214 936.348 953.913 924.938 953.094 900.875C952.294 877.392 945.926 845.173 937.25 806.875C919.885 730.22 894 629.358 894 512C894 394.639 919.886 293.772 937.25 217.125C945.923 178.839 952.294 146.609 953.094 123.125C953.914 99.0431 949.232 87.6692 942.781 81.2188C936.348 74.7859 924.938 70.0869 900.875 70.9062C877.392 71.7059 845.173 78.0741 806.875 86.75C730.22 104.115 629.358 130 512 130C394.639 130 293.772 104.113 217.125 86.75C178.839 78.0769 146.609 71.7059 123.125 70.9062C120.115 70.8037 117.316 70.8134 114.688 70.875Z" fill="none" opacity="1" stroke="#5e5e5e" stroke-dasharray="4.0,0.1,0.1,10.0" stroke-linecap="butt" stroke-linejoin="round" stroke-width="10"/>
</g>
</svg>
